<?xml version="1.0" encoding="UTF-8"?>
<svg width="145px" height="145px" viewBox="0 0 145 145" version="1.1" xmlns="http://www.w3.org/2000/svg" xmlns:xlink="http://www.w3.org/1999/xlink">
    <!-- Generator: Sketch 52.2 (67145) - http://www.bohemiancoding.com/sketch -->
    <title>Group</title>
    <desc>Created with Sketch.</desc>
    <g id="Page-1" stroke="none" stroke-width="1" fill="none" fill-rule="evenodd">
        <g id="Web-1920-–-4" transform="translate(-1908.000000, -2703.000000)">
            <g id="Group" transform="translate(1908.000000, 2703.000000)">
                <circle id="Oval" fill="#0F1F2F" cx="72.5" cy="72.5" r="72.5"></circle>
                <ellipse id="Oval" fill="#FFFFFF" cx="72.5" cy="95.8" rx="32.3" ry="32"></ellipse>
                <ellipse id="Oval" stroke="#48BFEF" cx="72.5" cy="95.8" rx="27.2" ry="26.9"></ellipse>
                <path d="M79.1,78.8 L65.8,78.8 C65.0874009,78.7871957 64.5128043,78.2125991 64.5,77.5 L64.5,46.4 C64.5128043,45.6874009 65.0874009,45.1128043 65.8,45.1 L79.1,45.1 C79.8125991,45.1128043 80.3871957,45.6874009 80.4,46.4 L80.4,77.5 C80.3871957,78.2125991 79.8125991,78.7871957 79.1,78.8 Z" id="Path" fill="#FFFFFF"></path>
                <path d="M90.4,46.1 L54.4,46.1 C53.8477153,46.1 53.4,45.6522847 53.4,45.1 L53.4,41.4 C53.4,40.8477153 53.8477153,40.4 54.4,40.4 L90.4,40.4 C90.9522847,40.4 91.4,40.8477153 91.4,41.4 L91.4,45.1 C91.5,45.7 91,46.1 90.4,46.1 Z" id="Path" fill="#FFFFFF"></path>
                <path d="M45.3,95.8 L99.7,95.8 C99.7,95.8 98.8,122.7 72.5,122.7 C46.2,122.8 45.3,95.8 45.3,95.8 Z" id="Path" fill="#48BFEF"></path>
                <circle id="Oval" fill="#48BFEF" cx="55.1" cy="89.7" r="1.6"></circle>
                <circle id="Oval" fill="#48BFEF" cx="64.5" cy="79.7" r="1.6"></circle>
                <circle id="Oval" fill="#48BFEF" cx="70.5" cy="89.7" r="1.6"></circle>
                <circle id="Oval" fill="#48BFEF" cx="82.9" cy="79.7" r="1.6"></circle>
                <circle id="Oval" fill="#48BFEF" cx="89" cy="89.7" r="1.6"></circle>
                <circle id="Oval" fill="#48BFEF" cx="74.1" cy="68.9" r="1.6"></circle>
                <circle id="Oval" fill="#48BFEF" cx="68.9" cy="57.7" r="1.6"></circle>
                <circle id="Oval" fill="#48BFEF" cx="75.7" cy="49.2" r="1.6"></circle>
                <circle id="Oval" fill="#48BFEF" cx="68" cy="35.2" r="1.6"></circle>
                <circle id="Oval" fill="#48BFEF" cx="81.8" cy="30.2" r="1.6"></circle>
            </g>
        </g>
    </g>
</svg>