<?xml version="1.0" encoding="UTF-8"?>
<svg width="145px" height="145px" viewBox="0 0 145 145" version="1.1" xmlns="http://www.w3.org/2000/svg" xmlns:xlink="http://www.w3.org/1999/xlink">
    <!-- Generator: Sketch 52.2 (67145) - http://www.bohemiancoding.com/sketch -->
    <title>Group</title>
    <desc>Created with Sketch.</desc>
    <g id="Page-1" stroke="none" stroke-width="1" fill="none" fill-rule="evenodd">
        <g id="Web-1920-–-4" transform="translate(-1267.000000, -2698.000000)">
            <g id="Group" transform="translate(1267.000000, 2698.000000)">
                <circle id="Oval" fill="#0F1F2F" cx="72.5" cy="72.5" r="72.5"></circle>
                <ellipse id="Oval" fill="#FFFFFF" cx="69.8" cy="50.9" rx="25.5" ry="27.3"></ellipse>
                <path d="M70.1,78.2 C47.2,78.2 20.3,86 20.3,96.8 L20.3,100.9 L119.200335,101.5 L119.2,96.7 C119.3,89.7 97,78.2 70.1,78.2 Z" id="Path" fill="#FFFFFF"></path>
                <path d="M69.8,61.8 C68.3516795,61.8085884 66.9077074,61.6406847 65.5,61.3 L65.5,63.3 L74,63.3 L74,61.4 C72.6152258,61.6618282 71.2093031,61.7957256 69.8,61.8 Z" id="Path" fill="#48BFEF"></path>
                <path d="M69.4,67.1 C68.0887195,67.1222173 66.77947,66.9879353 65.5,66.7 L65.5,69.4 C65.5145168,69.6146136 65.6853864,69.7854832 65.9,69.8 L73.6,69.8 C73.8146136,69.7854832 73.9854832,69.6146136 74,69.4 L74,66.6 C72.4950137,66.9664496 70.9485722,67.1345411 69.4,67.1 Z" id="Path" fill="#48BFEF"></path>
                <path d="M65.5,66 L74,66 L74,63.9 C72.5535725,64.2123441 71.07963,64.3798376 69.6,64.4 C68.2155997,64.4486642 66.8321304,64.2799485 65.5,63.9 L65.5,66 Z" id="Path" fill="#48BFEF"></path>
                <path d="M74,60.6 L74,59.8 C73.9854832,59.5853864 73.8146136,59.4145168 73.6,59.4 L65.9,59.4 C65.6853864,59.4145168 65.5145168,59.5853864 65.5,59.8 L65.5,60.6 L74,60.6 Z" id="Path" fill="#48BFEF"></path>
                <path d="M72.6,44.4 C71.6835324,44.6502216 70.7464289,44.8175616 69.8,44.9 C68.8891092,44.9727484 67.9727048,44.8709257 67.1,44.6 L68.6,59 L68,59.1 L71.3,59.1 L70.7,59 L72.6,44.4 Z" id="Path" fill="#48BFEF"></path>
                <path d="M78.1,35.4 L77.8,35.1 C75.1,32.3 72.3,31.5 69.8,31.7 C66.7453852,31.5025545 63.7778053,32.763776 61.8,35.1 C61.6,35.3 61.5,35.3 61.5,35.3 C54,43.6 65.5,59 65.5,59 L67.4,59 L65.7,42.3 L66.8,43 C67.6751,43.5116021 68.6937366,43.7223545 69.7,43.6 C70.8849877,43.470085 72.0561979,43.235843 73.2,42.9 L74.1,42.6 L72,58.9 L74.2,58.9 C74.1,59.1 85.6,43.7 78.1,35.4 Z" id="Path" fill="#48BFEF"></path>
                <polygon id="Path" fill="#48BFEF" points="71.9 59.2 71.9 59.1 71.3 59.1"></polygon>
                <polygon id="Path" fill="#48BFEF" points="67.4 59.2 68 59.1 67.4 59.1"></polygon>
            </g>
        </g>
    </g>
</svg>